<?xml version="1.0" encoding="UTF-8" standalone="no"?>
<svg width="28px" height="16px" viewBox="0 0 28 16" version="1.1" xmlns="http://www.w3.org/2000/svg" xmlns:xlink="http://www.w3.org/1999/xlink">
    <!-- Generator: Sketch 42 (36781) - http://www.bohemiancoding.com/sketch -->
    <title>Shape</title>
    <desc>Created with Sketch.</desc>
    <defs></defs>
    <g id="Page-1" stroke="none" stroke-width="1" fill="none" fill-rule="evenodd">
        <g id="01.Trang_Chu" transform="translate(-302.000000, -1302.000000)" fill-rule="nonzero" fill="#8791A0">
            <g id="Body" transform="translate(0.000000, 761.000000)">
                <g id="Nha-dat-ban" transform="translate(150.000000, 0.000000)">
                    <g id="1" transform="translate(0.000000, 97.000000)">
                        <g id="Group-9" transform="translate(20.000000, 441.000000)">
                            <path d="M158.742484,11.0133611 L140.375506,11.0133611 C140.483632,10.6419508 140.540495,10.2590763 140.534841,9.87052313 C140.534841,8.49909609 138.822165,7.58479354 137.689912,7.58479354 L134.275975,7.58479354 C133.877665,7.58479354 133.485062,7.69906127 133.138014,7.90477533 L133.138014,3.58478015 C133.138014,3.27047693 132.881969,3.01333436 132.569007,3.01333436 C132.256045,3.01338793 132,3.2705305 132,3.58478015 L132,18.4418886 C132,18.7561918 132.256045,19.0133344 132.569007,19.0133344 C132.881969,19.0133344 133.138014,18.7561918 133.138014,18.4418886 L133.138014,15.5847668 L158.173531,15.5847668 L158.173531,17.8704963 C158.173531,18.1847996 158.429576,18.4419421 158.742538,18.4419421 C159.0555,18.4419421 159.311545,18.1847996 159.311545,17.8704963 L159.311545,11.5848069 C159.311492,11.2705037 159.055446,11.0133611 158.742484,11.0133611 Z M134.275975,8.72763155 L137.689912,8.72763155 C138.378407,8.72763155 139.39688,9.32763088 139.39688,9.87046956 C139.39688,11.0133611 139.07821,11.0133611 138.827873,11.0133611 L134.275975,11.0133611 C133.650105,11.0133611 133.138014,10.499076 133.138014,9.87052313 C133.138014,9.24197026 133.650052,8.72763155 134.275975,8.72763155 Z M158.173531,14.4419287 L133.137961,14.4419287 L133.137961,12.1561992 L158.173477,12.1561992 L158.173477,14.4419287 L158.173531,14.4419287 Z" id="Shape"></path>
                        </g>
                    </g>
                </g>
            </g>
        </g>
    </g>
</svg>