<?xml version="1.0" encoding="UTF-8" standalone="no"?>
<svg width="16px" height="17px" viewBox="0 0 16 17" version="1.1" xmlns="http://www.w3.org/2000/svg" xmlns:xlink="http://www.w3.org/1999/xlink">
    <!-- Generator: Sketch 42 (36781) - http://www.bohemiancoding.com/sketch -->
    <title>Shape</title>
    <desc>Created with Sketch.</desc>
    <defs></defs>
    <g id="Page-1" stroke="none" stroke-width="1" fill="none" fill-rule="evenodd">
        <g id="03.Chi_Tiet_Bat_Dong_San" transform="translate(-1082.000000, -394.000000)" fill-rule="nonzero" fill="#FFFFFF">
            <g id="Suport" transform="translate(890.000000, 301.000000)">
                <g id="Button" transform="translate(150.000000, 81.000000)">
                    <g id="Group-16" transform="translate(42.000000, 10.000000)">
                        <path d="M15.6318307,14.905229 L13.1623777,12.4284034 C12.6705084,11.9371017 11.8559633,11.9520287 11.3469587,12.4626802 L10.1028376,13.7100999 C10.0242359,13.6666549 9.9428779,13.621275 9.85733941,13.5731307 C9.07168996,13.1365615 7.99639486,12.5381907 6.86487039,11.4025854 C5.72999236,10.2645845 5.13278484,9.18454088 4.69613428,8.39612703 C4.65005742,8.31260022 4.60591,8.23206803 4.56231385,8.15559009 L5.39730183,7.31944664 L5.80781309,6.90724897 C6.31759861,6.39586033 6.33165596,5.57920494 5.84093514,5.08647508 L3.37148208,2.60937303 C2.88076126,2.11733424 2.06584864,2.13226126 1.55606312,2.64364989 L0.86008667,3.34563445 L0.879105433,3.36456965 C0.645735112,3.66320219 0.45072389,4.00762934 0.305602465,4.37905413 C0.171827982,4.73260336 0.0885405038,5.06998164 0.0504570402,5.40805099 C-0.275618261,8.11905575 0.959682508,10.5967106 4.31212985,13.9588375 C8.94623044,18.605932 12.6807068,18.2548706 12.841815,18.2377322 C13.1926974,18.1956693 13.5289712,18.1115897 13.8707117,17.9784904 C14.2378565,17.8346566 14.5810671,17.6393614 14.8786602,17.4058273 L14.893866,17.4193722 L15.5989384,16.7269704 C16.1076673,16.2156739 16.1223218,15.3987421 15.6318307,14.905229 Z" id="Shape"></path>
                    </g>
                </g>
            </g>
        </g>
    </g>
</svg>