<?xml version="1.0" encoding="UTF-8" standalone="no"?>
<svg width="16px" height="13px" viewBox="0 0 16 13" version="1.1" xmlns="http://www.w3.org/2000/svg" xmlns:xlink="http://www.w3.org/1999/xlink">
    <!-- Generator: Sketch 42 (36781) - http://www.bohemiancoding.com/sketch -->
    <title>Combined Shape</title>
    <desc>Created with Sketch.</desc>
    <defs></defs>
    <g id="Page-1" stroke="none" stroke-width="1" fill="none" fill-rule="evenodd">
        <g id="05.Du_An_Chi_Tiet" transform="translate(-575.000000, -2555.000000)" fill-rule="nonzero" fill="#FFFFFF">
            <g id="Group-12" transform="translate(440.000000, 2549.000000)">
                <g id="Group-11" transform="translate(98.000000, 0.500000)">
                    <path d="M49.2274502,11.5832733 L49.2274823,11.5833051 L49.2274823,13.4499809 C48.6654313,16.1885754 46.0963353,18.25 43.1619656,18.25 C39.8120914,18.25 37.096481,15.5636373 37.096481,12.2499523 C37.096481,8.93626729 39.8120914,6.24996821 43.1619335,6.25 C44.8145672,6.25 46.3124915,6.90405819 47.4064486,7.96443104 L46.0366883,9.43722233 C45.3037306,8.70422827 44.2865497,8.24997351 43.1619335,8.24997351 C40.9287054,8.24997351 39.1183092,10.0407654 39.1183092,12.2499523 C39.1183092,14.4590439 40.9286411,16.2499629 43.1619335,16.2499629 C44.9725868,16.2499629 46.5049624,15.0727917 47.0201892,13.4499491 L43.5663505,13.4499491 L43.5663505,11.5832733 L49.2274502,11.5832733 Z M52.903519,11.5800942 L52.903519,12.5618809 L51.7455763,12.5618809 L51.7455763,13.707357 L50.7529805,13.707357 L50.7529805,12.5618809 L49.5950378,12.5618809 L49.5950378,11.5800942 L50.7529805,11.5800942 L50.7529805,10.4346499 L51.7455763,10.4346499 L51.7455763,11.5800942 L52.903519,11.5800942 Z" id="Combined-Shape"></path>
                </g>
            </g>
        </g>
    </g>
</svg>