<?xml version="1.0" encoding="UTF-8" standalone="no"?>
<svg width="17px" height="13px" viewBox="0 0 17 13" version="1.1" xmlns="http://www.w3.org/2000/svg" xmlns:xlink="http://www.w3.org/1999/xlink">
    <!-- Generator: Sketch 42 (36781) - http://www.bohemiancoding.com/sketch -->
    <title>Page 1</title>
    <desc>Created with Sketch.</desc>
    <defs></defs>
    <g id="Page-1" stroke="none" stroke-width="1" fill="none" fill-rule="evenodd">
        <g id="03.Chi_Tiet_Bat_Dong_San" transform="translate(-1214.000000, -871.000000)" fill="#FFFFFF">
            <g id="Suport" transform="translate(890.000000, 301.000000)">
                <g id="Share" transform="translate(1.000000, 529.000000)">
                    <path d="M338.390625,41.5 L324.609375,41.5 C324.342772,41.5 324.112061,41.598958 323.917236,41.796876 C323.722411,41.994792 323.625,42.229166 323.625,42.5 L323.625,44.1875 L331.5,47.375 L339.375,44.1875 L339.375,42.5 C339.375,42.229166 339.277588,41.994792 339.082763,41.796876 C338.887939,41.598958 338.657227,41.5 338.390625,41.5 Z M323.625,45.8125 L323.625,52.5 C323.625,52.7708346 323.722411,53.0052074 323.917236,53.203125 C324.112061,53.4010427 324.342772,53.5 324.609375,53.5 L338.390625,53.5 C338.657227,53.5 338.887939,53.4010427 339.082763,53.203125 C339.277588,53.0052074 339.375,52.7708346 339.375,52.5 L339.375,45.8125 L331.5,49 L323.625,45.8125 Z" id="Page-1"></path>
                </g>
            </g>
        </g>
    </g>
</svg>