<?xml version="1.0" encoding="UTF-8" standalone="no"?>
<svg width="8px" height="14px" viewBox="0 0 8 14" version="1.1" xmlns="http://www.w3.org/2000/svg" xmlns:xlink="http://www.w3.org/1999/xlink">
    <!-- Generator: Sketch 42 (36781) - http://www.bohemiancoding.com/sketch -->
    <title>Shape</title>
    <desc>Created with Sketch.</desc>
    <defs></defs>
    <g id="Page-1" stroke="none" stroke-width="1" fill="none" fill-rule="evenodd">
        <g id="05.Du_An_Chi_Tiet" transform="translate(-481.000000, -2555.000000)" fill-rule="nonzero" fill="#FFFFFF">
            <g id="Group-12" transform="translate(440.000000, 2549.000000)">
                <g id="Group-9">
                    <path d="M48.171898,6.25270487 L46.526379,6.25 C44.6776948,6.25 43.4829938,7.50573484 43.4829938,9.44931754 L43.4829938,10.9244172 L41.828498,10.9244172 C41.6855299,10.9244172 41.5697562,11.0431608 41.5697562,11.1896294 L41.5697562,13.3268807 C41.5697562,13.4733493 41.685662,13.5919577 41.828498,13.5919577 L43.4829938,13.5919577 L43.4829938,18.984923 C43.4829938,19.1313916 43.5987676,19.25 43.7417357,19.25 L45.9003821,19.25 C46.0433502,19.25 46.1591239,19.1312563 46.1591239,18.984923 L46.1591239,13.5919577 L48.0936154,13.5919577 C48.2365835,13.5919577 48.3523573,13.4733493 48.3523573,13.3268807 L48.3531493,11.1896294 C48.3531493,11.1193029 48.325823,11.0519517 48.2773749,11.0021821 C48.2289268,10.9524125 48.1629212,10.9244172 48.0942754,10.9244172 L46.1591239,10.9244172 L46.1591239,9.67395681 C46.1591239,9.0729352 46.2989238,8.76782612 47.0631363,8.76782612 L48.171634,8.76742039 C48.3144701,8.76742039 48.4302438,8.6486767 48.4302438,8.50234335 L48.4302438,6.5177819 C48.4302438,6.3715838 48.3146021,6.25297535 48.171898,6.25270487 Z" id="Shape"></path>
                </g>
            </g>
        </g>
    </g>
</svg>