<?xml version="1.0" encoding="UTF-8" standalone="no"?>
<svg width="13px" height="16px" viewBox="0 0 13 16" version="1.1" xmlns="http://www.w3.org/2000/svg" xmlns:xlink="http://www.w3.org/1999/xlink">
    <!-- Generator: Sketch 42 (36781) - http://www.bohemiancoding.com/sketch -->
    <title>Combined Shape</title>
    <desc>Created with Sketch.</desc>
    <defs></defs>
    <g id="Page-1" stroke="none" stroke-width="1" fill="none" fill-rule="evenodd">
        <g id="04.Du_An" transform="translate(-510.000000, -1735.000000)" fill-rule="nonzero" fill="#686C71">
            <g id="Du-an" transform="translate(150.000000, 228.000000)">
                <g id="1-copy-6" transform="translate(0.000000, 1441.000000)">
                    <g id="Group-10" transform="translate(360.000000, 63.000000)">
                        <path d="M6.2434868,3 C2.80484936,3 1.77635684e-15,5.8664944 1.77635684e-15,9.39448751 C1.29727863e-15,9.82170543 0.0404545581,10.2489233 0.121363674,10.66236 C0.121363674,10.6899225 0.134848527,10.7174849 0.134848527,10.7588286 C0.822576014,13.9147287 5.66363813,18.6554694 5.86591092,18.8484065 C5.97378974,18.9586563 6.10863827,19 6.2434868,19 C6.37833532,19 6.51318385,18.9448751 6.62106267,18.8484065 C6.82333546,18.6416882 11.6374279,13.9147287 12.3251554,10.8277347 C12.3251554,10.8001723 12.3386402,10.7726098 12.3386402,10.7450474 C12.4330342,10.3040482 12.4734887,9.84926787 12.4734887,9.39448751 C12.4869736,5.8664944 9.68212423,3 6.2434868,3 L6.2434868,3 Z M11.259852,10.538329 L11.259852,10.5796727 C10.7474276,12.8673557 7.38969928,16.4780362 6.2434868,17.6494401 C5.09727432,16.4780362 1.72606114,12.8673557 1.21363674,10.5245478 C1.21363674,10.4969854 1.21363674,10.4832041 1.20015189,10.4556417 C1.13272763,10.0973299 1.09227307,9.73901809 1.09227307,9.38070629 C1.09227307,6.48664944 3.39818288,4.11627907 6.23000194,4.11627907 C9.06182101,4.11627907 11.3812157,6.47286822 11.3812157,9.38070629 C11.3812157,9.78036176 11.3407611,10.166236 11.259852,10.538329 L11.259852,10.538329 Z M6.2434868,6.59689922 C5.08378947,6.59689922 4.15333463,7.56158484 4.15333463,8.7329888 C4.15333463,9.90439276 5.09727432,10.8690784 6.2434868,10.8690784 C7.38969928,10.8690784 8.33363897,9.91817399 8.33363897,8.7329888 C8.33363897,7.54780362 7.40318413,6.59689922 6.2434868,6.59689922 Z M6.2434868,9.75279931 C5.69060784,9.75279931 5.2456077,9.29801895 5.2456077,8.7329888 C5.2456077,8.16795866 5.69060784,7.71317829 6.2434868,7.71317829 C6.79636576,7.71317829 7.2413659,8.16795866 7.2413659,8.7329888 C7.2413659,9.29801895 6.79636576,9.75279931 6.2434868,9.75279931 Z" id="Combined-Shape"></path>
                    </g>
                </g>
            </g>
        </g>
    </g>
</svg>