<?xml version="1.0" encoding="UTF-8" standalone="no"?>
<svg width="12px" height="12px" viewBox="0 0 12 12" version="1.1" xmlns="http://www.w3.org/2000/svg" xmlns:xlink="http://www.w3.org/1999/xlink">
    <!-- Generator: Sketch 42 (36781) - http://www.bohemiancoding.com/sketch -->
    <title>Combined Shape</title>
    <desc>Created with Sketch.</desc>
    <defs></defs>
    <g id="Page-1" stroke="none" stroke-width="1" fill="none" fill-rule="evenodd">
        <g id="04.Du_An" transform="translate(-392.000000, -1911.000000)" fill-rule="nonzero" fill="#666666">
            <g id="Pagination" transform="translate(150.000000, 1899.000000)">
                <g id="double-angle-pointing-to-right" transform="translate(242.000000, 11.650000)">
                    <g id="Capa_1">
                        <path d="M11.4603841,6.07898358 C11.5372881,6.15767242 11.5756592,6.24803874 11.5756592,6.35012379 C11.5756592,6.45220884 11.5372881,6.54261642 11.4603841,6.62109895 L6.08070469,12.1109145 C6.00396245,12.1894383 5.91553502,12.2286796 5.81534152,12.2286796 C5.71535018,12.2286796 5.62692274,12.1895208 5.55001877,12.1109145 L4.97275379,11.522048 C4.89580939,11.4435242 4.85739783,11.3531579 4.85739783,11.2509491 C4.85739783,11.1489878 4.89580939,11.0586215 4.97275379,10.9800977 L9.50960289,6.35008253 L4.97271336,1.72019116 C4.89576895,1.64166737 4.8573574,1.55146611 4.8573574,1.449216 C4.8573574,1.34696589 4.89576895,1.25676463 4.97271336,1.17824084 L5.54997834,0.589209263 C5.62692274,0.510726737 5.71535018,0.471320421 5.81530108,0.471320421 C5.91537329,0.471320421 6.00392202,0.510726737 6.08070469,0.589209263 L11.4603841,6.07898358 Z M7.14280433,6.35012379 C7.14280433,6.45220884 7.10451408,6.54261642 7.02728664,6.62109895 L1.64797112,12.1109145 C1.57102671,12.1894383 1.48247798,12.2286796 1.38244621,12.2286796 C1.28241444,12.2286796 1.1938657,12.1895208 1.1169213,12.1109145 L0.539818051,11.522048 C0.462752347,11.4435242 0.424340794,11.3531579 0.424340794,11.2509491 C0.424340794,11.1489878 0.462752347,11.0586215 0.539818051,10.9800977 L5.07658628,6.35012379 L0.539818051,1.72023242 C0.462752347,1.64170863 0.424340794,1.55150737 0.424340794,1.44925726 C0.424340794,1.34700716 0.462752347,1.25680589 0.539818051,1.17828211 L1.11696173,0.589209263 C1.1938657,0.510726737 1.28245487,0.471320421 1.38248664,0.471320421 C1.48251841,0.471320421 1.57106715,0.510726737 1.64797112,0.589209263 L7.02728664,6.07898358 C7.10451408,6.15763116 7.14280433,6.24803874 7.14280433,6.35012379 Z" id="Combined-Shape"></path>
                    </g>
                </g>
            </g>
        </g>
    </g>
</svg>