<?xml version="1.0" encoding="UTF-8" standalone="no"?>
<svg width="17px" height="18px" viewBox="0 0 17 18" version="1.1" xmlns="http://www.w3.org/2000/svg" xmlns:xlink="http://www.w3.org/1999/xlink">
    <!-- Generator: Sketch 42 (36781) - http://www.bohemiancoding.com/sketch -->
    <title>Shape Copy</title>
    <desc>Created with Sketch.</desc>
    <defs></defs>
    <g id="Page-1" stroke="none" stroke-width="1" fill="none" fill-rule="evenodd">
        <g id="01.Trang_Chu" transform="translate(-1001.000000, -476.000000)" stroke="#FFFFFF" stroke-width="0.5" fill="#FFFFFF" fill-rule="nonzero">
            <g id="Search" transform="translate(399.000000, 461.000000)">
                <g id="Group-8" transform="translate(578.000000, 1.000000)">
                    <g id="Group-10" transform="translate(24.000000, 14.000000)">
                        <path d="M16.3040816,15.7386735 L12.457551,11.8921429 C13.4110204,10.7296939 13.9857143,9.24071429 13.9857143,7.61785714 C13.9857143,3.89540816 10.9653061,0.875 7.24285714,0.875 C3.51714286,0.875 0.5,3.89540816 0.5,7.61785714 C0.5,11.3403061 3.51714286,14.3607143 7.24285714,14.3607143 C8.86571429,14.3607143 10.3514286,13.7892857 11.5138776,12.8358163 L15.3604082,16.6790816 C15.6216327,16.9403061 16.0428571,16.9403061 16.3040816,16.6790816 C16.5653061,16.4211224 16.5653061,15.9966327 16.3040816,15.7386735 Z M7.24285714,13.0186735 C4.26163265,13.0186735 1.83877551,10.5958163 1.83877551,7.61785714 C1.83877551,4.63989796 4.26163265,2.21377551 7.24285714,2.21377551 C10.2208163,2.21377551 12.6469388,4.63989796 12.6469388,7.61785714 C12.6469388,10.5958163 10.2208163,13.0186735 7.24285714,13.0186735 Z" id="Shape-Copy"></path>
                    </g>
                </g>
            </g>
        </g>
    </g>
</svg>