<?xml version="1.0" encoding="UTF-8" standalone="no"?>
<svg width="26px" height="26px" viewBox="0 0 26 26" version="1.1" xmlns="http://www.w3.org/2000/svg" xmlns:xlink="http://www.w3.org/1999/xlink">
    <!-- Generator: Sketch 42 (36781) - http://www.bohemiancoding.com/sketch -->
    <title>Combined Shape</title>
    <desc>Created with Sketch.</desc>
    <defs></defs>
    <g id="Page-1" stroke="none" stroke-width="1" fill="none" fill-rule="evenodd">
        <g id="03.Chi_Tiet_Bat_Dong_San" transform="translate(-1090.000000, -444.000000)" fill-rule="nonzero" fill="#00AFF0">
            <g id="Suport" transform="translate(890.000000, 301.000000)">
                <g id="Group-9" transform="translate(150.000000, 141.000000)">
                    <g id="skype" transform="translate(50.000000, 2.000000)">
                        <g id="Layer_1">
                            <g id="Group">
                                <path d="M25.1956027,15.725726 C25.6722397,16.6725 25.9406096,17.7401027 25.9406096,18.8676301 C25.9406096,22.7763562 22.7289863,25.9433699 18.7659452,25.9433699 C17.5386918,25.9433699 16.384363,25.436726 15.3735685,24.9017671 C14.6399589,25.0355068 13.8828425,25.1060274 13.1087192,25.1060274 C6.27615068,25.1060274 0.738061644,19.8468151 0.738061644,13.1074726 C0.738061644,12.267637 0.823986301,11.4473014 0.988534247,10.6553699 C0.363554795,9.6039726 0.00284931507,8.38161644 0.00284931507,7.0765411 C0.00284931507,3.16781507 3.2144726,0 7.17831507,0 C8.58062329,0 9.88899315,0.398815068 10.9945274,1.08621233 C11.6819247,0.969479452 12.3888219,0.907863014 13.1094315,0.907863014 C19.9428014,0.907863014 25.4808904,6.37053425 25.4808904,13.1074726 C25.4808904,14.0064315 25.3820548,14.8802808 25.1956027,15.725726 Z M18.7520548,18.0870068 C19.2279795,17.4077123 19.4678562,16.6416918 19.467589,15.7904589 C19.467589,15.0786644 19.3289521,14.4780822 19.0541712,13.9884452 C18.7793904,13.4972055 18.3951781,13.0902877 17.9047397,12.7692945 C17.4135,12.4507945 16.8169247,12.1776164 16.1173288,11.9530548 C15.4169315,11.7292945 14.6347055,11.5234315 13.7722534,11.3377808 C13.0816507,11.1772397 12.5863151,11.0565 12.287226,10.9729795 C11.988137,10.8879452 11.6914521,10.7728151 11.4004658,10.625274 C11.106274,10.4785342 10.8760137,10.3041918 10.709863,10.0975274 C10.5437123,9.89246575 10.458589,9.64769178 10.458589,9.36721233 C10.458589,8.91247945 10.7049658,8.52176712 11.1962055,8.19917123 C11.6874452,7.87417123 12.3343288,7.71363014 13.134363,7.71363014 C13.9985068,7.71363014 14.6242877,7.86277397 15.015,8.16106164 C15.4057123,8.45854795 15.7388151,8.87356849 16.0184932,9.40532192 C16.2333493,9.77742466 16.4335137,10.0449041 16.618363,10.2086507 C16.8032123,10.3715068 17.0730959,10.454226 17.4289932,10.454226 C17.8189041,10.454226 18.1447945,10.3172808 18.405774,10.0449041 C18.6667534,9.77332877 18.7964863,9.46524658 18.7964863,9.12564384 C18.7964863,8.75603425 18.6919521,8.37182192 18.4827945,7.98271233 C18.2744384,7.59119863 17.9429384,7.21838356 17.4898082,6.8624863 C17.0375685,6.50658904 16.4693082,6.22130137 15.7827123,6.00564384 C15.0961164,5.79247945 14.2822808,5.68465068 13.3420068,5.68465068 C12.165863,5.68465068 11.1411781,5.84599315 10.2706233,6.17019178 C9.39846575,6.49447945 8.73457534,6.95731507 8.27494521,7.56039041 C7.8145137,8.16266438 7.58514384,8.85086301 7.58514384,9.62739041 C7.58514384,10.4404247 7.80240411,11.1213219 8.2385274,11.6708836 C8.67304795,12.2180411 9.26312329,12.6500685 10.0048356,12.9686575 C10.7456575,13.2847534 11.6673219,13.5636301 12.7673356,13.7995 C13.5908767,13.9721507 14.2474658,14.1358973 14.7379041,14.2907397 C15.2291438,14.4438904 15.6295616,14.6668493 15.9400479,14.958637 C16.2497329,15.2480205 16.4053767,15.6298288 16.4053767,16.0967603 C16.4053767,16.6861233 16.1167945,17.1797671 15.5429247,17.5728836 C14.967363,17.9676918 14.2200411,18.1638493 13.3007808,18.1638493 C12.6328836,18.1638493 12.092226,18.0650137 11.680411,17.8712603 C11.2702877,17.6759041 10.9508973,17.4262329 10.7255342,17.1255411 C10.4977671,16.8248493 10.2878082,16.4495411 10.0924521,15.9996164 C9.93360274,15.6211027 9.73984932,15.3366164 9.51288356,15.1444658 C9.28752055,14.9507123 9.00953425,14.8558836 8.6820411,14.8558836 C8.27913014,14.8558836 7.94593836,14.978226 7.6849589,15.2270959 C7.42397945,15.4727603 7.29344521,15.7694452 7.29344521,16.1147466 C7.29344521,16.7122123 7.51141781,17.3265959 7.94593836,17.957274 C8.38206164,18.5879521 8.94863014,19.0937945 9.64413014,19.4715068 C10.627411,19.9975616 11.8741644,20.2602329 13.3859041,20.2602329 C14.6463699,20.2602329 15.7357877,20.0688836 16.6558493,19.6822671 C17.5758219,19.2988562 18.2746164,18.7655 18.7520548,18.0870068 Z" id="Combined-Shape"></path>
                            </g>
                        </g>
                    </g>
                </g>
            </g>
        </g>
    </g>
</svg>