<?xml version="1.0" encoding="UTF-8" standalone="no"?>
<svg width="16px" height="16px" viewBox="0 0 16 16" version="1.1" xmlns="http://www.w3.org/2000/svg" xmlns:xlink="http://www.w3.org/1999/xlink">
    <!-- Generator: Sketch 42 (36781) - http://www.bohemiancoding.com/sketch -->
    <title>Combined Shape</title>
    <desc>Created with Sketch.</desc>
    <defs></defs>
    <g id="Page-1" stroke="none" stroke-width="1" fill="none" fill-rule="evenodd">
        <g id="01.Trang_Chu" transform="translate(-170.000000, -1302.000000)" fill-rule="nonzero" fill="#8791A0">
            <g id="Body" transform="translate(0.000000, 761.000000)">
                <g id="Nha-dat-ban" transform="translate(150.000000, 0.000000)">
                    <g id="1" transform="translate(0.000000, 97.000000)">
                        <g id="Group-9" transform="translate(20.000000, 441.000000)">
                            <path d="M0.557242763,7.83586403 C0.249421861,7.83586403 0,7.58636787 0,7.27869557 L0,3.5572798 C0,3.2495332 0.249421861,3.00003704 0.557242763,3.00003704 L4.27880713,3.00003704 C4.58662803,3.00003704 4.83604989,3.2495332 4.83604989,3.5572798 C4.83604989,3.8650264 4.58655373,4.11452256 4.27880713,4.11452256 L1.90235249,4.11452256 L5.49151598,7.70286876 C5.70921215,7.92041633 5.70921215,8.27326245 5.49159028,8.49088432 C5.38281649,8.59973241 5.24016234,8.6541193 5.0975082,8.6541193 C4.95492835,8.6541193 4.8123485,8.59973241 4.70350041,8.49095862 L1.11448553,4.90268673 L1.11448553,7.27862127 C1.11448553,7.58636787 0.865063665,7.83586403 0.557242763,7.83586403 Z M15.4430544,14.16421 C15.750801,14.16421 16.0002972,14.4137062 16.0003715,14.7214528 L16.0003715,18.4426457 C16.0003715,18.7503923 15.7509496,18.9998884 15.4431287,18.9998884 L11.7217873,18.9998884 C11.4139664,18.9998884 11.1645445,18.7503923 11.1645445,18.4426457 C11.1645445,18.1348991 11.4139664,17.8854029 11.7217873,17.8854029 L14.0976475,17.8854029 L10.3982243,14.1859797 C10.1806024,13.9684321 10.1806024,13.615586 10.3982243,13.3979641 C10.6158461,13.1803422 10.9686179,13.1803422 11.1863141,13.3979641 L14.8858117,17.0974616 L14.8858117,14.7214528 C14.8858117,14.4137062 15.1352335,14.16421 15.4430544,14.16421 Z M4.81398308,13.3979641 C5.03167925,13.1803422 5.38452537,13.1803422 5.60199864,13.3978898 C5.81969482,13.6155117 5.81969482,13.9683578 5.60207294,14.1859797 L1.90287259,17.8855515 L4.27880713,17.8855515 C4.58662803,17.8855515 4.83604989,18.1350477 4.83604989,18.4427943 C4.83604989,18.7505409 4.58655373,19.000037 4.27880713,19.000037 L0.557614258,19.000037 C0.249793356,19.000037 0.000371495175,18.7505409 0.000371495175,18.4427943 L0.000371495175,14.7214528 C0.000371495175,14.4137062 0.249793356,14.16421 0.557614258,14.16421 C0.86543516,14.16421 1.11485702,14.4137062 1.11485702,14.7214528 L1.11485702,17.0973873 L4.81398308,13.3979641 Z M15.4430544,3.00003704 C15.750801,3.00003704 16.0002972,3.2494589 16.0003715,3.5572798 L16.0003715,7.27862127 C16.0003715,7.58636787 15.7509496,7.83586403 15.4431287,7.83586403 C15.1353078,7.83586403 14.885886,7.58636787 14.885886,7.27862127 L14.885886,4.90253813 L11.2973912,8.49125582 C11.1885431,8.60002961 11.0458889,8.6544908 10.9033091,8.6544908 C10.7607292,8.6544908 10.6180751,8.60010391 10.5093013,8.49133012 C10.2916051,8.27370825 10.2916051,7.92086213 10.509227,7.70324025 L14.0977218,4.11452256 L11.721713,4.11452256 C11.4138921,4.11452256 11.1644702,3.8650264 11.1644702,3.5572798 C11.1644702,3.2495332 11.4138921,3.00003704 11.721713,3.00003704 L15.4430544,3.00003704 Z" id="Combined-Shape"></path>
                        </g>
                    </g>
                </g>
            </g>
        </g>
    </g>
</svg>