<?xml version="1.0" encoding="UTF-8" standalone="no"?>
<svg width="16px" height="16px" viewBox="0 0 16 16" version="1.1" xmlns="http://www.w3.org/2000/svg" xmlns:xlink="http://www.w3.org/1999/xlink">
    <!-- Generator: Sketch 42 (36781) - http://www.bohemiancoding.com/sketch -->
    <title>Page 1</title>
    <desc>Created with Sketch.</desc>
    <defs></defs>
    <g id="Page-1" stroke="none" stroke-width="1" fill="none" fill-rule="evenodd">
        <g id="03.Chi_Tiet_Bat_Dong_San" transform="translate(-1042.000000, -769.000000)" fill="#FFFFFF">
            <g id="Suport" transform="translate(890.000000, 301.000000)">
                <g id="Form" transform="translate(30.000000, 212.000000)">
                    <g id="Button" transform="translate(83.000000, 244.000000)">
                        <path d="M54.7507085,12.1034853 C54.947121,12.2463305 55.0274698,12.4367875 54.991759,12.6748623 L52.7062471,26.3879244 C52.6764878,26.5605288 52.5812603,26.6944442 52.4205586,26.7896741 C52.3372321,26.8372893 52.2449803,26.8610963 52.1437973,26.8610963 C52.0783272,26.8610963 52.0069055,26.8462169 51.9295325,26.8164575 L47.2245946,24.8969869 L44.5641181,27.8163682 C44.4569837,27.9413577 44.3171162,28.0038515 44.1445116,28.0038515 C44.061187,28.0038515 43.9927412,27.9919479 43.9391739,27.9681404 C43.826088,27.9264773 43.736812,27.8565437 43.6713399,27.7583376 C43.6058697,27.6601318 43.5731346,27.5515115 43.5731346,27.4324739 L43.5731346,23.3971209 L39.3592255,21.6740587 C39.1390059,21.5907342 39.0199701,21.4270588 39.0021145,21.1830326 C38.9842589,20.9509093 39.0794875,20.775331 39.2878033,20.6562936 L54.1436188,12.0856309 C54.3519362,11.9606401 54.5542961,11.9665915 54.7507085,12.1034853 Z M51.6974092,25.4862183 L53.670447,13.674773 L40.8680194,21.0580437 L43.8677523,22.2811485 L51.5724203,16.5762999 L47.3049454,23.6917365 L51.6974092,25.4862183 Z" id="Page-1"></path>
                    </g>
                </g>
            </g>
        </g>
    </g>
</svg>