<?xml version="1.0" encoding="UTF-8" standalone="no"?>
<svg width="25px" height="14px" viewBox="0 0 25 14" version="1.1" xmlns="http://www.w3.org/2000/svg" xmlns:xlink="http://www.w3.org/1999/xlink">
    <!-- Generator: Sketch 42 (36781) - http://www.bohemiancoding.com/sketch -->
    <title>Shape</title>
    <desc>Created with Sketch.</desc>
    <defs></defs>
    <g id="Page-1" stroke="none" stroke-width="1" fill="none" fill-rule="evenodd">
        <g id="01.Trang_Chu" transform="translate(-438.000000, -1303.000000)" fill-rule="nonzero" fill="#8791A0">
            <g id="Body" transform="translate(0.000000, 761.000000)">
                <g id="Nha-dat-ban" transform="translate(150.000000, 0.000000)">
                    <g id="1" transform="translate(0.000000, 97.000000)">
                        <g id="Group-9" transform="translate(20.000000, 441.000000)">
                            <path d="M292.316392,8.28666248 C292.316392,7.95389274 292.045216,7.68413062 291.710701,7.68413062 L271.66235,7.68413062 L271.66235,5.21839808 L273.565948,5.21839808 L273.565948,6.34341115 C273.565948,6.67618089 273.837125,6.94594301 274.171639,6.94594301 C274.506153,6.94594301 274.777329,6.67618089 274.777329,6.34341115 L274.777329,4.61586622 C274.777329,4.28309648 274.506153,4.01333436 274.171639,4.01333436 L271.05666,4.01333436 C270.722146,4.01333436 270.450969,4.28309648 270.450969,4.61586622 L270.450969,7.68413062 L268.60569,7.68413062 C268.271176,7.68413062 268,7.95389274 268,8.28666248 C268,12.0695297 270.285616,15.3308625 273.554959,16.7771972 L273.368493,16.8547517 C273.059851,16.9830909 272.914226,17.3360025 273.043238,17.6430355 C273.140408,17.8741495 273.365378,18.0133344 273.60229,18.0133344 C273.680164,18.0133344 273.759337,17.9982711 273.835654,17.9665951 L275.310942,17.3530455 C275.963184,17.4971367 276.640606,17.5737443 277.335852,17.5737443 L282.980626,17.5737443 C283.804365,17.5737443 284.603271,17.4665797 285.364624,17.266367 L287.048356,17.9665951 C287.124673,17.9983571 287.203846,18.0133344 287.28172,18.0133344 C287.518632,18.0133344 287.743689,17.8740634 287.840773,17.6430355 C287.969785,17.3360025 287.824159,16.9830909 287.515517,16.8547517 L287.031051,16.6532478 C290.155894,15.150189 292.316392,11.9646891 292.316392,8.28666248 L292.316392,8.28666248 Z M282.980626,16.3686806 L277.335852,16.3686806 C273.059764,16.3686806 269.544597,13.0653427 269.233791,8.88910827 L291.082774,8.88910827 C290.771881,13.0654288 287.256714,16.3686806 282.980626,16.3686806 Z" id="Shape"></path>
                        </g>
                    </g>
                </g>
            </g>
        </g>
    </g>
</svg>