<?xml version="1.0" encoding="UTF-8" standalone="no"?>
<svg width="28px" height="28px" viewBox="0 0 28 28" version="1.1" xmlns="http://www.w3.org/2000/svg" xmlns:xlink="http://www.w3.org/1999/xlink">
    <!-- Generator: Sketch 42 (36781) - http://www.bohemiancoding.com/sketch -->
    <title>Combined Shape</title>
    <desc>Created with Sketch.</desc>
    <defs></defs>
    <g id="Page-1" stroke="none" stroke-width="1" fill="none" fill-rule="evenodd">
        <g id="03.Chi_Tiet_Bat_Dong_San" transform="translate(-1136.000000, -443.000000)" fill-rule="nonzero" fill="#7D3DAF">
            <g id="Suport" transform="translate(890.000000, 301.000000)">
                <g id="viber" transform="translate(246.000000, 142.000000)">
                    <path d="M26.8349576,6.77131154 L26.8269355,6.73922326 C26.178039,4.11600594 23.252657,1.30115025 20.5661545,0.715539049 L20.5358489,0.70929966 C16.1905603,-0.119647708 11.7846604,-0.119647708 7.44026316,0.70929966 L7.40906621,0.715539049 C4.72345501,1.30115025 1.79807301,4.11600594 1.14828523,6.73922326 L1.1411545,6.77131154 C0.338947368,10.4347241 0.338947368,14.1498345 1.1411545,17.813247 L1.14828523,17.8453353 C1.77035229,20.3566002 4.47789049,23.0421222 7.06411715,23.7806876 L7.06411715,26.7089219 C7.06411715,27.7687267 8.35567063,28.2892699 9.09013582,27.5244992 L12.0569652,24.4405475 C12.7004244,24.4765577 13.3442402,24.4966129 13.988056,24.4966129 C16.1754075,24.4966129 18.3636503,24.2898217 20.5358489,23.875348 L20.5661545,23.8691087 C23.252657,23.2834975 26.178039,20.4686418 26.8269355,17.8454244 L26.8349576,17.8133362 C27.6371647,14.1498345 27.6371647,10.4347241 26.8349576,6.77131154 Z M24.4871647,17.2820076 C24.0539728,18.9933829 21.8327504,21.1210144 20.0678947,21.5140959 C17.7574491,21.953438 15.4287309,22.1412436 13.1023302,22.0767997 C13.0560696,22.0755518 13.0115917,22.0934677 12.9793251,22.1266256 C12.6491723,22.4655136 10.8130985,24.3503438 10.8130985,24.3503438 L8.50898132,26.7150722 C8.34051783,26.8906664 8.04459253,26.7712267 8.04459253,26.5287818 L8.04459253,21.6779244 C8.04459253,21.5977929 7.98736842,21.5296944 7.90866299,21.5142742 C7.90821732,21.5141851 7.90777165,21.5140959 7.90732598,21.5140068 C6.14247029,21.1209253 3.92213922,18.9932937 3.48805603,17.2819185 C2.76606961,13.9705857 2.76606961,10.6137946 3.48805603,7.3024618 C3.92213922,5.59108659 6.14247029,3.46345501 7.90732598,3.07037351 C11.9424278,2.30292869 16.0336842,2.30292869 20.0678947,3.07037351 C21.8336418,3.46345501 24.0539728,5.59108659 24.4871647,7.3024618 C25.2099533,10.6138837 25.2099533,13.9706749 24.4871647,17.2820076 Z M17.827152,19.521146 C18.06309,19.4485017 17.5558277,19.4386969 17.827152,19.521146 C18.06309,19.4485017 18.3129329,19.412135 18.5221307,19.2999151 C19.2630136,18.9019312 19.7766044,18.278438 20.1295756,17.5289983 C20.3223727,17.1197835 20.2044482,16.7242063 19.862084,16.4226655 C19.5059932,16.1090917 19.1216469,15.8399958 18.735607,15.5649278 C18.3423472,15.2846902 17.9466808,15.0073939 17.5385357,14.7490832 C17.1304796,14.4908616 16.6463922,14.4949618 16.2675722,14.8047029 C15.880017,15.1216638 15.7009465,15.7283107 15.1478693,15.7929329 C14.8176273,15.8314389 14.5297241,15.6925679 14.2430688,15.5733065 C12.4516511,14.8278778 11.3600255,13.4438922 10.7123769,11.664062 C10.6282343,11.432848 10.6344737,11.1820246 10.7651443,10.9693506 C10.8366299,10.8531197 10.9347666,10.7663922 11.0390535,10.680556 C11.1579584,10.5825976 11.2742784,10.4808065 11.4019185,10.3940789 C11.9270968,10.037275 12.0066044,9.39640068 11.7168294,8.87211375 C11.2455772,8.01972411 10.6636205,7.24675297 10.0300552,6.51139643 C9.73698217,6.17126061 9.34113752,6.06011036 8.93985569,6.25290747 C8.42573005,6.49989813 7.9510017,6.83504244 7.58207555,7.2729584 C7.18890492,7.73957555 6.81552207,8.37938031 7.06901952,8.99868421 C7.34702886,9.67779711 7.61977929,10.3613667 7.9434253,11.0191766 C8.6259253,12.4062818 9.43330221,13.7169992 10.4648514,14.8779711 C12.27882,16.9195883 14.568854,18.2514304 17.0571222,19.2837818 C17.2972496,19.3834338 17.5558277,19.4387861 17.827152,19.521146 Z M13.9948302,5.39597199 C13.9318124,5.39570458 17.2495628,5.4871562 13.9948302,5.39597199 C13.9318124,5.39570458 13.8687054,5.39285229 13.805955,5.39632852 C13.5751868,5.40871817 13.3706239,5.60169355 13.413854,5.84404924 C13.4653735,6.13311121 13.7699448,6.1471944 14.0024958,6.17161715 C14.3703523,6.21021222 14.7420416,6.22723684 15.105174,6.29203735 C17.5184805,6.72246604 19.4517997,8.72834041 19.7887267,11.1528778 C19.8525467,11.6121859 19.8758107,12.0773769 19.9093251,12.5405178 C19.9262606,12.7744949 20.0436503,12.9927844 20.3045458,12.9896647 C20.557152,12.9866341 20.6896944,12.7642445 20.6714219,12.5301783 C20.6280136,11.9737139 20.5932513,11.4131494 20.4956494,10.8648854 C19.9227844,7.64714346 17.2495628,5.4871562 13.9948302,5.39597199 Z M18.9410611,11.8079244 C18.9280475,11.5847326 18.9357131,11.8485696 18.9410611,11.8079244 C18.9280475,11.5847326 18.9200255,11.4152886 18.9072793,11.2460229 C18.9021095,11.1774788 18.8857088,11.109826 18.8755475,11.0415492 C18.6503947,9.53429117 17.879028,8.4054966 16.528646,7.69037351 C15.8645968,7.33873939 15.1431452,7.17731749 14.3962012,7.13488964 C14.1689092,7.12205433 14.0164898,7.27206706 14.0065068,7.48064092 C13.9958107,7.70320883 14.1164092,7.84716044 14.342275,7.87853565 C14.5286545,7.90447368 14.7161036,7.92310272 14.9015917,7.95376486 C15.3259593,8.02400255 15.7447114,8.14183786 16.13191,8.33142615 C16.7722496,8.645 17.3181961,9.16322581 17.6755348,9.77967742 C18.0231579,10.379461 18.1729924,11.0681112 18.1741511,11.7574745 C18.1743294,11.8628311 18.17941,11.9741596 18.2131919,12.0720289 C18.3272835,12.4018251 18.822691,12.3609126 18.909062,12.0341469 C18.9328608,11.9441214 18.9357131,11.8485696 18.9410611,11.8079244 Z M16.9166469,11.7291299 C17.0406324,11.7207513 16.6443421,11.7340323 16.9166469,11.7291299 C17.0406324,11.7207513 17.1677377,11.6347368 17.2075806,11.4630645 C17.2308447,11.3627886 17.2201486,11.2519949 17.2110569,11.1471732 C17.0823472,9.66166384 16.1804881,9.00929117 14.9186163,8.9181961 C14.7167275,8.9035781 14.536944,9.04779711 14.5060144,9.23257216 C14.4719652,9.43561969 14.5916723,9.61085739 14.80809,9.66389219 C15.0073939,9.71273769 15.214809,9.69687182 15.4145586,9.7545416 C15.5717912,9.79991087 15.721893,9.87023769 15.8543463,9.96676995 C16.1349406,10.1711545 16.3122284,10.4802716 16.3940535,10.8138115 C16.43559,10.9831664 16.4510102,11.1595628 16.4705306,11.3336418 C16.4986078,11.5833065 16.6443421,11.7340323 16.9166469,11.7291299 Z" id="Combined-Shape"></path>
                </g>
            </g>
        </g>
    </g>
</svg>